<svg id="visual" viewBox="0 0 2400 1600" width="2400" height="1600" xmlns="http://www.w3.org/2000/svg" xmlns:xlink="http://www.w3.org/1999/xlink" version="1.1"><rect x="0" y="0" width="2400" height="1600" fill="#ffffff"></rect><defs><linearGradient id="grad1_0" x1="33.3%" y1="100%" x2="100%" y2="0%"><stop offset="20%" stop-color="#ffffff" stop-opacity="1"></stop><stop offset="80%" stop-color="#ffffff" stop-opacity="1"></stop></linearGradient></defs><defs><linearGradient id="grad2_0" x1="0%" y1="100%" x2="66.7%" y2="0%"><stop offset="20%" stop-color="#ffffff" stop-opacity="1"></stop><stop offset="80%" stop-color="#ffffff" stop-opacity="1"></stop></linearGradient></defs><g transform="translate(2400, 1600)"><path d="M-1298 0C-1224.3 -142.1 -1150.5 -284.3 -1103.1 -456.9C-1055.7 -629.6 -1034.6 -832.8 -917.8 -917.8C-801.1 -1002.9 -588.7 -969.8 -419.8 -1013.5C-250.9 -1057.2 -125.4 -1177.6 0 -1298L0 0Z" fill="#715DF2"></path></g><g transform="translate(0, 0)"><path d="M1298 0C1254.2 159.1 1210.5 318.1 1154.8 478.4C1099.2 638.6 1031.7 800 917.8 917.8C803.9 1035.6 643.6 1109.8 482.9 1165.9C322.2 1222 161.1 1260 0 1298L0 0Z" fill="#715DF2"></path></g></svg>